<svg width="229" height="54" viewBox="0 0 229 54" fill="none" xmlns="http://www.w3.org/2000/svg">
<mask id="mask0_143_1090" style="mask-type:alpha" maskUnits="userSpaceOnUse" x="0" y="0" width="229" height="54">
<rect width="229" height="54" fill="white"/>
</mask>
<g mask="url(#mask0_143_1090)">
<g clip-path="url(#clip0_143_1090)">
<path d="M227.481 70.3538C212.146 70.3538 201.181 67.254 194.721 61.0641C188.729 55.3232 186.605 46.9751 188.406 36.2465L189.854 36.4879C188.14 46.7047 190.12 54.6135 195.735 59.9971C206.642 70.4455 231.185 71.7057 268.686 63.739L268.995 65.1875C252.766 68.6317 238.928 70.3538 227.481 70.3538ZM82.3465 55.8688C76.4898 55.8688 71.8256 54.6859 68.5424 52.32C63.7141 48.8485 62.14 43.1462 63.8348 35.3098L65.2833 35.6237C63.7237 42.813 65.1143 48.0228 69.4115 51.1178C72.4823 53.334 76.9195 54.3962 82.3804 54.3962C96.7495 54.3962 118.187 47.033 140.393 33.842L141.146 35.1119C126.178 44.0008 110.81 50.6253 97.86 53.7637C92.0467 55.1639 86.8465 55.864 82.3465 55.864V55.8688ZM-18.1454 36.7294L-19 35.5271C4.6926 18.768 22.625 7.63385 35.8305 1.47774C48.4469 -4.39833 57.0751 -5.82269 62.169 -2.86775C67.1035 -0.0142136 68.89 6.84201 67.7795 18.71L66.331 18.5748C67.3788 7.34899 65.8482 0.936974 61.4496 -1.59307C51.7639 -7.18427 27.2215 4.63546 -18.1454 36.7245V36.7294ZM194.837 20.313L193.475 19.7336C198.835 7.08825 202.611 -1.43857 204.344 -5.31089C199.699 -2.18696 187.541 5.9198 167.615 18.7149L166.818 17.474C192.785 0.796947 205.546 -7.90852 205.677 -7.9906L206.763 -7.07322C206.719 -6.99597 202.34 2.63172 194.837 20.3034V20.313Z" fill="#781EB4"/>
<path d="M35.3717 24.9002C35.8858 25.1864 36.3091 25.6114 36.5933 26.1266C36.8941 26.6767 37.0457 27.2959 37.0326 27.9228C37.0457 28.5704 36.8785 29.209 36.5498 29.7672C36.2244 30.3071 35.7499 30.7413 35.1834 31.0177C34.5624 31.3246 33.877 31.4785 33.1845 31.4667C32.6383 31.4957 32.0929 31.3984 31.5904 31.1823C31.088 30.9663 30.6421 30.6373 30.2875 30.221C29.6018 29.3906 29.2591 28.1964 29.2591 26.6384C29.1943 25.4193 29.5208 24.2114 30.1909 23.191C30.898 22.294 31.9166 21.6959 33.0444 21.5156L36.4001 20.7961L36.6416 22.3122L33.5997 22.9351C32.8714 23.0452 32.1906 23.3638 31.6394 23.8525C31.1778 24.3514 30.909 24.9984 30.8814 25.6776C31.2028 25.2948 31.6052 24.9881 32.0595 24.7795C32.5337 24.5636 33.0497 24.4548 33.5707 24.4608C34.1986 24.452 34.8184 24.6032 35.3717 24.9002ZM34.7295 29.4968C34.9216 29.2912 35.0711 29.0498 35.1697 28.7863C35.2683 28.5228 35.314 28.2425 35.3041 27.9614C35.3159 27.6858 35.2711 27.4108 35.1722 27.1533C35.0734 26.8959 34.9227 26.6614 34.7295 26.4646C34.5293 26.2723 34.2921 26.1227 34.0323 26.0248C33.7725 25.9269 33.4956 25.8827 33.2183 25.8949C32.9387 25.8824 32.6595 25.9264 32.3973 26.0243C32.1352 26.1222 31.8955 26.2719 31.6925 26.4646C31.4978 26.6605 31.3457 26.8947 31.246 27.1523C31.1463 27.4099 31.101 27.6854 31.1131 27.9614C31.1018 28.2449 31.1478 28.5279 31.2481 28.7933C31.3485 29.0588 31.5013 29.3013 31.6974 29.5064C31.8971 29.7038 32.135 29.8582 32.3965 29.9604C32.6581 30.0625 32.9377 30.1101 33.2183 30.1003C33.4984 30.111 33.7776 30.0628 34.0379 29.9589C34.2982 29.8549 34.5338 29.6975 34.7295 29.4968Z" fill="black"/>
<path d="M45.0524 26.8992C45.1201 27.3958 45.1201 27.8993 45.0524 28.3959C44.9719 29.1556 44.6364 29.8655 44.1007 30.41C43.565 30.9545 42.8606 31.3015 42.1023 31.3943C41.9421 31.4134 41.7809 31.4231 41.6195 31.4233C41.0211 31.432 40.4303 31.2886 39.9025 31.0065C39.3747 30.7244 38.9271 30.313 38.6018 29.8107C38.2352 29.1654 38.0501 28.433 38.0659 27.691H39.5144C39.4996 28.164 39.6113 28.6323 39.8379 29.0478C40.0607 29.3762 40.3726 29.6342 40.7369 29.7916C41.1012 29.949 41.5029 29.9991 41.8947 29.9362C42.3309 29.8821 42.7356 29.6809 43.042 29.3657C43.3484 29.0506 43.5381 28.6404 43.5798 28.2028C43.6031 28.0235 43.6144 27.8428 43.6136 27.662C43.1857 27.8851 42.7176 28.0204 42.2368 28.0602C41.7559 28.1 41.2719 28.0434 40.8132 27.8938C40.4046 27.7532 40.0378 27.5125 39.7461 27.1937C39.5642 26.9956 39.427 26.7607 39.3437 26.505C39.2604 26.2493 39.2329 25.9786 39.2633 25.7114C39.2982 25.4344 39.3911 25.1679 39.5359 24.9291C39.6806 24.6904 39.874 24.4848 40.1034 24.3257C40.4848 24.0897 40.9158 23.9456 41.3623 23.9045C41.8089 23.8634 42.2589 23.9266 42.6769 24.0891C43.3029 24.3005 43.8578 24.6817 44.2799 25.1899C44.45 24.9666 44.6033 24.731 44.7386 24.485L46.0181 25.1996C45.7344 25.7242 45.3857 26.2109 44.98 26.6481C45.009 26.7303 45.0332 26.8142 45.0524 26.8992ZM43.2418 26.2087C43.0439 25.9481 42.7894 25.7357 42.4975 25.5877C42.2057 25.4397 41.884 25.3598 41.5567 25.3541C41.3452 25.3471 41.1364 25.4043 40.958 25.5183C40.8979 25.5581 40.8467 25.61 40.8076 25.6707C40.7685 25.7314 40.7425 25.7995 40.7311 25.8707C40.7266 25.9312 40.7346 25.992 40.7545 26.0493C40.7745 26.1066 40.806 26.1592 40.847 26.2039C40.981 26.3406 41.1469 26.4418 41.3298 26.4984C41.6501 26.5946 41.9877 26.6185 42.3184 26.5684C42.649 26.5183 42.9644 26.3955 43.2418 26.2087Z" fill="black"/>
<path d="M54.2699 24.1084V31.3509H52.58V25.5569H49.8762L49.8086 27.0054C49.7816 27.8157 49.6928 28.6228 49.543 29.4196C49.453 29.9753 49.2256 30.4997 48.8815 30.9453C48.7274 31.1319 48.5321 31.2801 48.3108 31.3781C48.0896 31.4762 47.8486 31.5214 47.6069 31.5102C47.2897 31.499 46.9751 31.4487 46.6702 31.3605L46.7522 29.941C46.8587 29.9636 46.967 29.9765 47.0757 29.9796C47.2296 29.9877 47.3828 29.9538 47.5189 29.8815C47.6549 29.8092 47.7688 29.7013 47.8483 29.5692C48.0271 29.2661 48.1405 28.929 48.1814 28.5794C48.2297 28.198 48.2731 27.6524 48.3069 26.9378L48.4277 24.1519L54.2699 24.1084Z" fill="black"/>
<path d="M62.28 27.1116C62.5289 27.3289 62.7249 27.6002 62.8529 27.9048C62.981 28.2094 63.0377 28.5393 63.0188 28.8691C63.0374 29.2179 62.9736 29.5662 62.8327 29.8857C62.6918 30.2053 62.4777 30.4872 62.2076 30.7087C61.5364 31.1801 60.7223 31.4036 59.9045 31.3412H56.5247V24.0988H58.2146V26.4646H60.1459C60.9119 26.4171 61.6694 26.6468 62.28 27.1116ZM60.9088 29.7865C61.0451 29.6675 61.1516 29.5181 61.2195 29.3503C61.2875 29.1826 61.315 29.0012 61.2999 28.8209C61.314 28.6529 61.2866 28.484 61.2201 28.329C61.1536 28.1741 61.05 28.0379 60.9184 27.9324C60.5777 27.7154 60.1775 27.6107 59.7741 27.6331H58.2291V30.0811H59.7741C60.1754 30.1218 60.578 30.0173 60.9088 29.7865Z" fill="black"/>
<path d="M75.1428 24.1084V31.3509H64.5205V24.1084H66.2104V29.9024H69.0108V24.1084H70.7008V29.9024H73.4722V24.1084H75.1428Z" fill="black"/>
<path d="M84.1475 28.2511H78.4838C78.5671 28.7584 78.8462 29.2127 79.2612 29.5161C79.7139 29.844 80.262 30.0137 80.8207 29.999C81.1838 30.0109 81.5454 29.9476 81.8827 29.813C82.2201 29.6784 82.526 29.4754 82.781 29.2168L83.6888 30.2597C83.3568 30.6493 82.9339 30.9512 82.4576 31.1384C81.9229 31.3421 81.3542 31.4421 80.7821 31.433C80.0545 31.4473 79.3346 31.2814 78.6866 30.9501C78.1021 30.6556 77.6157 30.1977 77.2864 29.632C76.9524 29.0443 76.7855 28.3764 76.8036 27.7007C76.7946 27.0367 76.9612 26.3821 77.2864 25.8031C77.5975 25.2469 78.0594 24.79 78.619 24.485C79.2096 24.1581 79.8755 23.9916 80.5504 24.0022C81.2109 23.9967 81.8614 24.1631 82.4382 24.485C82.9863 24.7916 83.4365 25.2469 83.737 25.7983C84.0591 26.3908 84.2252 27.0554 84.2199 27.7297C84.1716 27.8793 84.1668 28.0435 84.1475 28.2511ZM79.1501 25.8369C78.773 26.1647 78.5305 26.6205 78.4694 27.1164H82.5638C82.5092 26.6241 82.2734 26.1698 81.9023 25.8418C81.5183 25.5142 81.0258 25.342 80.5214 25.3589C80.0181 25.3521 79.5299 25.5308 79.1501 25.8611V25.8369Z" fill="black"/>
<path d="M87.339 29.4919C87.443 29.5989 87.5241 29.7261 87.5772 29.8656C87.6303 30.0051 87.6544 30.1539 87.648 30.3031C87.6475 30.4565 87.6264 30.6091 87.5852 30.7569C87.517 30.9981 87.4348 31.2351 87.339 31.4667L86.6485 33.369H85.5525L86.0932 31.3025C85.8953 31.2283 85.7262 31.093 85.6104 30.9162C85.4963 30.7324 85.4376 30.5195 85.4414 30.3031C85.4359 30.1536 85.4609 30.0046 85.5148 29.8652C85.5688 29.7257 85.6506 29.5987 85.7553 29.4919C85.8573 29.389 85.9794 29.3081 86.1139 29.2541C86.2484 29.2001 86.3926 29.1742 86.5374 29.1781C86.6855 29.1718 86.8332 29.1965 86.9712 29.2506C87.1092 29.3046 87.2345 29.3868 87.339 29.4919Z" fill="black"/>
<path d="M99.178 24.1084V31.3509H97.4881V28.5504C96.8098 28.874 96.0668 29.0391 95.3154 29.0333C94.5484 29.0834 93.789 28.8554 93.1764 28.3911C92.9145 28.1382 92.712 27.8303 92.5835 27.4896C92.4549 27.149 92.4034 26.7841 92.4329 26.4212V24.1084H94.1228V26.3198C94.1081 26.5107 94.137 26.7025 94.2073 26.8806C94.2775 27.0588 94.3873 27.2187 94.5283 27.3482C94.8602 27.5916 95.2667 27.7111 95.6775 27.6862C96.3037 27.6876 96.9223 27.5491 97.4881 27.2806V24.1132L99.178 24.1084Z" fill="black"/>
<path d="M110.119 27.7682C110.105 28.4316 109.906 29.078 109.544 29.6343C109.183 30.1906 108.673 30.6346 108.072 30.9163C107.427 31.2386 106.716 31.404 105.996 31.3991C105.216 31.4132 104.451 31.1836 103.808 30.7425C103.471 30.5039 103.186 30.2002 102.968 29.8492C102.706 29.4308 102.541 28.9589 102.485 28.4683C101.957 28.104 101.53 27.6118 101.242 27.0378C100.955 26.4637 100.818 25.8264 100.844 25.1851H102.292C102.282 25.7177 102.424 26.2423 102.703 26.6963C102.757 26.5315 102.821 26.3702 102.896 26.2135C102.939 26.1266 102.983 26.0397 103.031 25.9528C103.162 25.7257 103.31 25.5094 103.475 25.3058C103.793 24.8829 104.209 24.5428 104.686 24.3142C105.163 24.0856 105.689 23.9752 106.218 23.9925H106.372C106.713 24.0348 107.041 24.1472 107.336 24.3225C107.631 24.4979 107.886 24.7324 108.086 25.0113C108.25 25.244 108.363 25.5092 108.416 25.789C108.469 26.0688 108.462 26.3567 108.395 26.6336C108.168 27.5992 107.309 28.3669 106.044 28.787C105.437 28.9913 104.794 29.0653 104.156 29.0043C104.166 29.0283 104.179 29.0511 104.195 29.0719C104.313 29.2606 104.468 29.4245 104.649 29.5547C105.067 29.8044 105.543 29.9402 106.03 29.9486C106.517 29.9571 106.998 29.8379 107.425 29.603C107.787 29.4379 108.098 29.1763 108.322 28.8467C108.546 28.5172 108.675 28.1324 108.695 27.7344L110.119 27.7682ZM103.948 27.5606C104.491 27.6765 105.055 27.6431 105.58 27.464C106.179 27.2661 106.865 26.8653 106.99 26.3342C107.012 26.2517 107.015 26.1653 106.998 26.0816C106.981 25.9979 106.946 25.9192 106.894 25.8514C106.81 25.738 106.704 25.643 106.582 25.5724C106.459 25.5018 106.324 25.457 106.184 25.441H106.107C105.808 25.4476 105.515 25.5225 105.25 25.6597C104.984 25.7969 104.754 25.993 104.576 26.2328C104.463 26.3727 104.362 26.5212 104.272 26.677C104.238 26.735 104.209 26.7929 104.18 26.8508C104.076 27.0786 104.001 27.3188 103.958 27.5654L103.948 27.5606Z" fill="black"/>
<path d="M118.902 31.3316V26.5419L116.488 30.5735H115.754L113.364 26.5322V31.3316H111.823V24.0891H113.591L116.159 28.6084L118.854 24.0891H120.432V31.3316H118.902Z" fill="black"/>
<path d="M133.358 24.1084V31.3509H131.678V25.5569H128.124V31.3509H126.434V24.1084H133.358Z" fill="black"/>
<path d="M141.527 24.4898C142.077 24.7892 142.53 25.2399 142.831 25.7886C143.16 26.3784 143.326 27.0448 143.314 27.7199C143.324 28.3948 143.158 29.0607 142.831 29.6513C142.53 30.2012 142.077 30.6536 141.527 30.9549C140.949 31.2654 140.301 31.4232 139.644 31.4136C139.211 31.4361 138.778 31.361 138.378 31.1938C137.978 31.0267 137.62 30.7718 137.332 30.4479V33.9485H135.642V24.1084H137.249V25.074C137.524 24.735 137.879 24.4709 138.283 24.3063C138.715 24.13 139.178 24.043 139.644 24.0504C140.299 24.0323 140.948 24.1836 141.527 24.4898ZM140.987 29.3568C141.191 29.1375 141.349 28.8799 141.453 28.5989C141.556 28.3179 141.603 28.0192 141.59 27.7199C141.603 27.4207 141.556 27.1219 141.453 26.8409C141.349 26.56 141.191 26.3024 140.987 26.0831C140.788 25.8778 140.549 25.7163 140.285 25.609C140.02 25.5017 139.736 25.4511 139.451 25.4603C139.069 25.4565 138.693 25.5531 138.36 25.7403C138.032 25.9251 137.764 26.1999 137.587 26.5322C137.392 26.8971 137.294 27.3061 137.303 27.7199C137.294 28.1337 137.392 28.5427 137.587 28.9077C137.764 29.24 138.032 29.5148 138.36 29.6996C138.693 29.8868 139.069 29.9834 139.451 29.9796C139.736 29.9888 140.02 29.9382 140.285 29.8309C140.549 29.7236 140.788 29.5621 140.987 29.3568Z" fill="black"/>
<path d="M144.984 24.1084H146.674V28.8691L150.662 24.1084H152.203V31.3509H150.513V26.5902L146.539 31.3509H144.984V24.1084Z" fill="black"/>
<path d="M161.014 24.1084V31.3509H159.324V25.5569H156.621L156.553 27.0054C156.527 27.8156 156.44 28.6226 156.292 29.4196C156.2 29.9747 155.973 30.4987 155.631 30.9453C155.476 31.1317 155.279 31.2797 155.057 31.3777C154.835 31.4757 154.594 31.521 154.351 31.5102C154.036 31.4989 153.723 31.4486 153.419 31.3605L153.502 29.941C153.608 29.9638 153.716 29.9768 153.825 29.9796C153.978 29.9879 154.131 29.954 154.266 29.8816C154.402 29.8093 154.514 29.7012 154.593 29.5692C154.776 29.268 154.889 28.9299 154.926 28.5794C154.974 28.198 155.018 27.6524 155.056 26.9378L155.177 24.1519L161.014 24.1084Z" fill="black"/>
<path d="M164.529 30.9501C163.957 30.6486 163.482 30.1917 163.158 29.6319C162.824 29.0442 162.657 28.3763 162.675 27.7006C162.661 27.033 162.828 26.374 163.158 25.7934C163.484 25.2375 163.959 24.7842 164.529 24.4849C165.136 24.1597 165.816 23.9936 166.504 24.0021C167.197 23.9924 167.882 24.1586 168.494 24.4849C169.064 24.7842 169.539 25.2375 169.865 25.7934C170.195 26.374 170.362 27.033 170.348 27.7006C170.366 28.3763 170.199 29.0442 169.865 29.6319C169.541 30.1917 169.066 30.6486 168.494 30.9501C167.882 31.2764 167.197 31.4426 166.504 31.4329C165.816 31.4414 165.136 31.2753 164.529 30.9501ZM168.044 29.3567C168.25 29.1385 168.41 28.8812 168.515 28.6C168.619 28.3189 168.666 28.0196 168.653 27.7199C168.666 27.4202 168.619 27.121 168.515 26.8398C168.41 26.5586 168.25 26.3013 168.044 26.0831C167.845 25.8781 167.605 25.7169 167.34 25.6097C167.075 25.5024 166.79 25.4516 166.504 25.4603C166.219 25.451 165.935 25.5017 165.671 25.609C165.406 25.7163 165.167 25.8778 164.969 26.0831C164.765 26.3026 164.608 26.5603 164.505 26.8413C164.402 27.1223 164.356 27.421 164.37 27.7199C164.356 28.0188 164.402 28.3175 164.505 28.5985C164.608 28.8795 164.765 29.1373 164.969 29.3567C165.167 29.5621 165.406 29.7236 165.671 29.8308C165.935 29.9381 166.219 29.9888 166.504 29.9796C166.793 29.9903 167.08 29.9404 167.348 29.8331C167.616 29.7258 167.858 29.5635 168.059 29.3567H168.044Z" fill="black"/>
<path d="M185.214 30.7281C184.488 31.1833 183.656 31.4412 182.8 31.4764C182.452 31.4887 182.105 31.4196 181.788 31.2746C181.472 31.1296 181.193 30.9127 180.975 30.6411C180.695 30.2865 180.516 29.8627 180.458 29.4148L178.971 31.375H177.522V25.8659C177.262 26.0542 176.953 26.2812 176.629 26.5322C176.724 26.8069 176.794 27.0897 176.837 27.3772C176.953 28.1078 176.895 28.8555 176.668 29.5596C176.449 30.2689 175.96 30.8637 175.306 31.2157C175.007 31.3665 174.676 31.4458 174.341 31.4475C173.851 31.4485 173.379 31.2658 173.018 30.9357C172.714 30.6527 172.503 30.2845 172.413 29.8795C172.322 29.4745 172.356 29.0516 172.511 28.6664C172.632 28.3549 172.807 28.0673 173.027 27.8166C173.578 27.2088 174.177 26.6469 174.819 26.1363C174.726 25.9777 174.601 25.8401 174.452 25.7321C174.303 25.6241 174.134 25.548 173.954 25.5086C173.301 25.4558 172.649 25.626 172.105 25.9915L171.4 24.7409C172.23 24.2199 173.213 23.9984 174.186 24.1132C174.541 24.1805 174.878 24.3171 175.18 24.5151C175.481 24.7131 175.741 24.9687 175.944 25.2672C176.789 24.6299 177.469 24.1615 177.527 24.1229H178.952V29.0092L181.713 25.3686C182.042 24.901 182.405 24.4587 182.8 24.0457L183.843 25.0113C183.533 25.3401 183.244 25.6884 182.978 26.0542L182.906 26.1508C182.475 26.734 182.148 27.3874 181.94 28.0821C181.833 28.3514 181.788 28.6414 181.808 28.9307C181.828 29.2199 181.913 29.5008 182.056 29.7527C182.447 30.2356 183.36 30.1438 184.437 29.5017L185.214 30.7281ZM175.335 29.0961C175.489 28.6109 175.525 28.0964 175.441 27.5945V27.5172C174.983 27.8979 174.552 28.311 174.152 28.7533C174.042 28.8773 173.954 29.0194 173.892 29.1733C173.84 29.2895 173.825 29.4186 173.848 29.5437C173.871 29.6687 173.932 29.7837 174.022 29.8734C174.116 29.9537 174.232 30.0025 174.355 30.0129C174.478 30.0233 174.602 29.9948 174.708 29.9314C175.017 29.7413 175.246 29.444 175.35 29.0961H175.335Z" fill="black"/>
<path d="M193.649 28.2511H187.986C188.069 28.7584 188.348 29.2127 188.763 29.5161C189.216 29.8433 189.764 30.013 190.322 29.999C190.685 30.0109 191.047 29.9476 191.384 29.813C191.722 29.6784 192.028 29.4754 192.283 29.2168L193.19 30.2597C192.86 30.6515 192.437 30.9537 191.959 31.1384C191.425 31.3426 190.856 31.4426 190.284 31.433C189.556 31.4473 188.836 31.2814 188.188 30.9501C187.604 30.6556 187.117 30.1977 186.788 29.632C186.454 29.0443 186.287 28.3764 186.305 27.7007C186.296 27.0367 186.463 26.3821 186.788 25.8031C187.099 25.2469 187.561 24.79 188.121 24.485C188.711 24.1581 189.377 23.9916 190.052 24.0022C190.711 23.9974 191.36 24.1637 191.935 24.485C192.484 24.7901 192.935 25.2458 193.234 25.7983C193.556 26.3908 193.722 27.0554 193.717 27.7297C193.649 27.8793 193.649 28.0435 193.649 28.2511ZM188.652 25.8369C188.275 26.1647 188.032 26.6205 187.971 27.1164H192.065C192.011 26.6241 191.775 26.1698 191.404 25.8418C191.022 25.5145 190.531 25.3423 190.028 25.3589C189.515 25.3458 189.015 25.5249 188.628 25.8611L188.652 25.8369Z" fill="black"/>
<path d="M195.503 24.1084H197.193V27.044H200.829V24.1084H202.519V31.3509H200.829V28.4973H197.193V31.3509H195.503V24.1084Z" fill="black"/>
<path d="M204.793 24.1084H206.483V28.8691L210.471 24.1084H211.997V31.3509H210.307V26.5902L206.333 31.3509H204.778L204.793 24.1084Z" fill="black"/>
<path d="M221.016 28.2511H215.377C215.46 28.7584 215.739 29.2127 216.154 29.5161C216.607 29.844 217.155 30.0137 217.714 29.999C218.077 30.0109 218.438 29.9476 218.776 29.813C219.113 29.6784 219.419 29.4754 219.674 29.2168L220.582 30.2597C220.25 30.6493 219.827 30.9512 219.35 31.1384C218.816 31.3421 218.247 31.4421 217.675 31.433C216.947 31.4473 216.227 31.2814 215.579 30.9501C214.995 30.6556 214.508 30.1977 214.179 29.632C213.845 29.0443 213.678 28.3764 213.696 27.7007C213.687 27.0367 213.854 26.3821 214.179 25.8031C214.49 25.2469 214.952 24.79 215.512 24.485C216.102 24.1581 216.768 23.9916 217.443 24.0022C218.104 23.9967 218.754 24.1631 219.331 24.485C219.879 24.7916 220.329 25.2469 220.63 25.7983C220.952 26.3908 221.118 27.0554 221.113 27.7297C221.04 27.8793 221.031 28.0435 221.016 28.2511ZM216.019 25.8369C215.642 26.1647 215.399 26.6205 215.338 27.1164H219.432C219.376 26.6247 219.141 26.1709 218.771 25.8418C218.387 25.5142 217.894 25.342 217.39 25.3589C216.887 25.3521 216.399 25.5308 216.019 25.8611V25.8369Z" fill="black"/>
</g>
</g>
<defs>
<clipPath id="clip0_143_1090">
<rect width="288" height="78.3541" fill="white" transform="translate(-19 -8)"/>
</clipPath>
</defs>
</svg>
