<svg width="1440" height="398" viewBox="0 0 1440 398" fill="none" xmlns="http://www.w3.org/2000/svg">
<g clip-path="url(#clip0_143_1273)">
<path d="M1239.59 397.491C1161.88 397.491 1106.31 381.782 1073.57 350.413C1043.2 321.319 1032.44 279.013 1041.57 224.643L1048.91 225.866C1040.22 277.642 1050.25 317.722 1078.71 345.005C1133.98 397.956 1258.36 404.342 1448.41 363.969L1449.98 371.309C1367.73 388.764 1297.6 397.491 1239.59 397.491ZM504.082 324.084C474.401 324.084 450.764 318.089 434.125 306.1C409.656 288.507 401.68 259.609 410.268 219.896L417.609 221.486C409.705 257.92 416.752 284.322 438.53 300.007C454.092 311.238 476.579 316.621 504.253 316.621C577.073 316.621 685.714 279.306 798.247 212.457L802.064 218.893C726.21 263.94 648.326 297.511 582.7 313.416C553.24 320.512 526.887 324.06 504.082 324.06V324.084ZM-5.18913 227.09L-9.52002 220.997C110.549 136.065 201.426 79.6401 268.349 48.4423C332.286 18.6637 376.012 11.4454 401.826 26.4203C426.834 40.8814 435.887 75.6272 430.259 135.772L422.919 135.087C428.228 78.1965 420.472 45.7018 398.181 32.8801C349.096 4.54517 224.721 64.445 -5.18913 227.065V227.09ZM1074.16 143.895L1067.26 140.959C1094.42 76.8751 1113.55 33.6631 1122.34 14.0391C1098.8 29.8704 1037.19 70.9537 936.202 135.796L932.165 129.508C1063.76 44.9922 1128.43 0.874833 1129.09 0.458862L1134.6 5.10794C1134.38 5.49944 1112.18 54.2904 1074.16 143.847V143.895Z" fill="#E4032E"/>
<path d="M266.024 167.141C268.629 168.591 270.775 170.745 272.215 173.356C273.739 176.143 274.507 179.282 274.441 182.458C274.508 185.741 273.66 188.977 271.994 191.806C270.346 194.541 267.941 196.742 265.07 198.143C261.923 199.698 258.449 200.478 254.94 200.419C252.172 200.565 249.408 200.072 246.861 198.977C244.315 197.882 242.056 196.215 240.258 194.106C236.784 189.897 235.047 183.845 235.047 175.95C234.718 169.772 236.373 163.65 239.769 158.479C243.352 153.933 248.515 150.902 254.23 149.988L271.236 146.342L272.459 154.026L257.044 157.182C253.353 157.74 249.903 159.355 247.11 161.831C244.77 164.359 243.408 167.639 243.268 171.08C244.897 169.14 246.936 167.586 249.238 166.529C251.642 165.435 254.257 164.884 256.897 164.914C260.079 164.87 263.22 165.636 266.024 167.141ZM262.77 190.435C263.743 189.393 264.501 188.17 265.001 186.835C265.5 185.499 265.732 184.079 265.681 182.654C265.742 181.258 265.514 179.864 265.013 178.559C264.512 177.254 263.749 176.066 262.77 175.069C261.755 174.094 260.553 173.336 259.236 172.84C257.92 172.344 256.516 172.12 255.111 172.181C253.694 172.118 252.279 172.341 250.951 172.837C249.622 173.333 248.407 174.092 247.379 175.069C246.392 176.062 245.621 177.248 245.116 178.554C244.611 179.859 244.381 181.255 244.443 182.654C244.385 184.091 244.618 185.525 245.127 186.87C245.635 188.215 246.41 189.444 247.403 190.484C248.415 191.484 249.621 192.267 250.947 192.785C252.272 193.302 253.689 193.543 255.111 193.494C256.53 193.548 257.946 193.304 259.265 192.777C260.584 192.25 261.778 191.452 262.77 190.435Z" fill="white"/>
<path d="M315.084 177.271C315.427 179.788 315.427 182.34 315.084 184.856C314.676 188.706 312.976 192.304 310.261 195.063C307.546 197.823 303.976 199.581 300.134 200.052C299.322 200.148 298.505 200.197 297.687 200.198C294.654 200.242 291.66 199.515 288.986 198.086C286.311 196.657 284.043 194.571 282.394 192.026C280.536 188.756 279.598 185.044 279.678 181.284H287.018C286.944 183.681 287.51 186.054 288.658 188.16C289.787 189.824 291.368 191.132 293.214 191.929C295.06 192.727 297.096 192.981 299.082 192.662C301.292 192.388 303.343 191.368 304.896 189.771C306.448 188.174 307.41 186.095 307.621 183.878C307.739 182.969 307.796 182.053 307.793 181.137C305.624 182.267 303.252 182.953 300.815 183.155C298.378 183.357 295.925 183.07 293.601 182.312C291.53 181.599 289.671 180.379 288.193 178.764C287.271 177.76 286.575 176.569 286.153 175.273C285.731 173.977 285.592 172.606 285.746 171.252C285.923 169.848 286.394 168.497 287.127 167.287C287.861 166.077 288.841 165.035 290.004 164.229C291.936 163.033 294.12 162.303 296.384 162.095C298.647 161.887 300.927 162.207 303.046 163.03C306.218 164.102 309.03 166.033 311.169 168.609C312.031 167.477 312.808 166.283 313.494 165.037L319.978 168.658C318.54 171.317 316.773 173.783 314.717 175.999C314.864 176.415 314.987 176.84 315.084 177.271ZM305.908 173.772C304.905 172.451 303.616 171.375 302.137 170.625C300.657 169.875 299.027 169.47 297.369 169.441C296.297 169.405 295.239 169.695 294.335 170.273C294.03 170.475 293.77 170.738 293.572 171.045C293.374 171.353 293.242 171.698 293.185 172.059C293.162 172.366 293.202 172.674 293.303 172.964C293.404 173.255 293.564 173.521 293.772 173.748C294.451 174.44 295.292 174.953 296.219 175.24C297.842 175.728 299.553 175.849 301.229 175.595C302.904 175.341 304.503 174.718 305.908 173.772Z" fill="white"/>
<path d="M361.795 163.128V199.831H353.231V170.469H339.528L339.186 177.809C339.049 181.916 338.599 186.006 337.84 190.044C337.384 192.86 336.232 195.518 334.488 197.776C333.707 198.722 332.717 199.473 331.596 199.969C330.475 200.466 329.253 200.696 328.028 200.639C326.421 200.582 324.826 200.327 323.281 199.88L323.697 192.686C324.237 192.801 324.785 192.866 325.337 192.882C326.116 192.923 326.893 192.751 327.582 192.385C328.272 192.018 328.849 191.471 329.252 190.802C330.158 189.266 330.733 187.558 330.94 185.786C331.185 183.853 331.405 181.088 331.576 177.467L332.188 163.348L361.795 163.128Z" fill="white"/>
<path d="M402.389 178.348C403.651 179.449 404.644 180.824 405.292 182.367C405.941 183.911 406.229 185.583 406.133 187.254C406.227 189.022 405.904 190.787 405.19 192.406C404.476 194.026 403.391 195.455 402.022 196.577C398.62 198.966 394.495 200.099 390.35 199.782H373.222V163.079H381.786V175.069H391.574C395.456 174.828 399.294 175.992 402.389 178.348ZM395.44 191.903C396.131 191.3 396.67 190.543 397.015 189.693C397.359 188.843 397.498 187.924 397.422 187.01C397.493 186.158 397.355 185.302 397.018 184.517C396.68 183.732 396.155 183.042 395.489 182.507C393.762 181.408 391.734 180.877 389.69 180.99H381.86V193.396H389.69C391.723 193.603 393.764 193.073 395.44 191.903Z" fill="white"/>
<path d="M467.574 163.128V199.831H413.743V163.128H422.307V192.491H436.499V163.128H445.063V192.491H459.108V163.128H467.574Z" fill="white"/>
<path d="M513.209 184.122H484.507C484.929 186.693 486.343 188.995 488.446 190.533C490.741 192.195 493.518 193.055 496.35 192.98C498.19 193.041 500.022 192.72 501.732 192.038C503.441 191.355 504.991 190.327 506.284 189.016L510.884 194.301C509.202 196.276 507.059 197.806 504.645 198.755C501.935 199.787 499.053 200.293 496.154 200.247C492.467 200.32 488.818 199.479 485.535 197.8C482.572 196.308 480.107 193.987 478.438 191.12C476.746 188.142 475.9 184.757 475.992 181.333C475.946 177.968 476.79 174.651 478.438 171.717C480.015 168.898 482.356 166.582 485.192 165.037C488.185 163.38 491.559 162.536 494.979 162.59C498.327 162.562 501.624 163.405 504.547 165.037C507.324 166.59 509.606 168.898 511.129 171.692C512.761 174.695 513.603 178.063 513.576 181.48C513.331 182.238 513.307 183.07 513.209 184.122ZM487.883 171.888C485.972 173.549 484.743 175.859 484.433 178.372H505.183C504.907 175.877 503.712 173.575 501.831 171.912C499.885 170.252 497.389 169.38 494.833 169.465C492.282 169.431 489.808 170.336 487.883 172.01V171.888Z" fill="white"/>
<path d="M529.383 190.411C529.91 190.953 530.321 191.598 530.59 192.304C530.859 193.011 530.981 193.766 530.949 194.522C530.946 195.299 530.839 196.073 530.631 196.822C530.285 198.044 529.868 199.245 529.383 200.419L525.884 210.059H520.329L523.07 199.587C522.067 199.211 521.21 198.525 520.623 197.629C520.044 196.697 519.747 195.618 519.767 194.522C519.739 193.764 519.865 193.009 520.139 192.302C520.412 191.596 520.827 190.952 521.357 190.411C521.874 189.889 522.493 189.479 523.174 189.206C523.856 188.932 524.587 188.801 525.321 188.82C526.071 188.789 526.82 188.914 527.519 189.188C528.219 189.462 528.853 189.878 529.383 190.411Z" fill="white"/>
<path d="M589.381 163.128V199.831H580.816V185.639C577.379 187.279 573.614 188.116 569.805 188.086C565.918 188.34 562.07 187.185 558.966 184.832C557.639 183.55 556.612 181.99 555.961 180.263C555.309 178.537 555.048 176.688 555.198 174.849V163.128H563.762V174.335C563.687 175.302 563.834 176.274 564.19 177.177C564.546 178.08 565.102 178.89 565.817 179.547C567.499 180.78 569.559 181.386 571.641 181.259C574.814 181.267 577.949 180.565 580.816 179.204V163.152L589.381 163.128Z" fill="white"/>
<path d="M644.827 181.675C644.757 185.037 643.748 188.313 641.915 191.132C640.082 193.951 637.497 196.202 634.452 197.629C631.187 199.262 627.581 200.101 623.93 200.076C619.979 200.147 616.104 198.984 612.846 196.748C611.138 195.539 609.69 194 608.588 192.221C607.26 190.101 606.424 187.71 606.142 185.223C603.464 183.377 601.297 180.883 599.842 177.974C598.388 175.064 597.693 171.835 597.822 168.585H605.163C605.108 171.284 605.83 173.942 607.243 176.243C607.517 175.408 607.844 174.591 608.221 173.796C608.442 173.356 608.662 172.916 608.907 172.475C609.569 171.324 610.322 170.228 611.158 169.196C612.77 167.053 614.875 165.329 617.294 164.171C619.713 163.013 622.375 162.453 625.056 162.541H625.839C627.565 162.755 629.227 163.325 630.722 164.213C632.217 165.102 633.512 166.29 634.525 167.704C635.357 168.883 635.927 170.227 636.197 171.645C636.467 173.063 636.431 174.522 636.091 175.925C634.941 180.819 630.586 184.71 624.175 186.838C621.099 187.873 617.839 188.249 614.608 187.939C614.658 188.061 614.724 188.177 614.804 188.282C615.405 189.238 616.186 190.069 617.104 190.729C619.223 191.994 621.637 192.682 624.106 192.725C626.574 192.768 629.011 192.164 631.173 190.974C633.011 190.137 634.583 188.811 635.718 187.141C636.853 185.471 637.507 183.521 637.608 181.504L644.827 181.675ZM613.556 180.623C616.306 181.21 619.164 181.041 621.826 180.134C624.86 179.131 628.335 177.1 628.971 174.408C629.081 173.99 629.094 173.552 629.01 173.128C628.925 172.704 628.744 172.305 628.482 171.961C628.057 171.386 627.518 170.905 626.899 170.547C626.281 170.19 625.595 169.963 624.885 169.881H624.493C622.98 169.915 621.495 170.294 620.15 170.99C618.806 171.685 617.638 172.679 616.737 173.894C616.165 174.603 615.649 175.356 615.195 176.145C615.024 176.439 614.877 176.733 614.73 177.026C614.202 178.181 613.824 179.398 613.605 180.648L613.556 180.623Z" fill="white"/>
<path d="M689.336 199.733V175.46L677.101 195.892H673.382L661.27 175.411V199.733H653.464V163.03H662.42L675.437 185.933L689.091 163.03H697.092V199.733H689.336Z" fill="white"/>
<path d="M762.596 163.128V199.831H754.08V170.469H736.071V199.831H727.507V163.128H762.596Z" fill="white"/>
<path d="M803.997 165.061C806.783 166.578 809.076 168.862 810.604 171.643C812.27 174.632 813.114 178.009 813.051 181.431C813.104 184.851 812.26 188.226 810.604 191.218C809.077 194.005 806.784 196.298 803.997 197.825C801.065 199.398 797.781 200.198 794.454 200.149C792.259 200.263 790.066 199.883 788.037 199.036C786.009 198.189 784.196 196.897 782.734 195.256V212.996H774.169V163.128H782.318V168.022C783.707 166.304 785.508 164.965 787.554 164.131C789.743 163.238 792.09 162.797 794.454 162.834C797.774 162.742 801.061 163.509 803.997 165.061ZM801.257 189.726C802.291 188.615 803.093 187.309 803.619 185.885C804.144 184.461 804.38 182.947 804.315 181.431C804.38 179.914 804.144 178.4 803.619 176.976C803.093 175.552 802.291 174.247 801.257 173.136C800.252 172.095 799.041 171.277 797.7 170.733C796.36 170.189 794.921 169.933 793.475 169.979C791.54 169.96 789.633 170.45 787.945 171.398C786.284 172.335 784.925 173.727 784.03 175.411C783.041 177.261 782.544 179.334 782.587 181.431C782.544 183.528 783.041 185.6 784.03 187.45C784.925 189.134 786.284 190.527 787.945 191.463C789.633 192.412 791.54 192.901 793.475 192.882C794.921 192.929 796.36 192.672 797.7 192.128C799.041 191.585 800.252 190.766 801.257 189.726Z" fill="white"/>
<path d="M821.517 163.128H830.081V187.254L850.292 163.128H858.098V199.831H849.534V175.705L829.396 199.831H821.517V163.128Z" fill="white"/>
<path d="M902.753 163.128V199.831H894.189V170.469H880.487L880.144 177.809C880.014 181.915 879.572 186.005 878.823 190.044C878.357 192.857 877.206 195.513 875.471 197.776C874.684 198.721 873.689 199.471 872.564 199.967C871.439 200.464 870.215 200.694 868.986 200.639C867.387 200.581 865.801 200.327 864.264 199.88L864.68 192.686C865.219 192.802 865.768 192.868 866.319 192.882C867.096 192.924 867.869 192.752 868.555 192.385C869.241 192.019 869.813 191.471 870.21 190.802C871.137 189.276 871.714 187.563 871.898 185.786C872.143 183.853 872.363 181.088 872.559 177.467L873.171 163.348L902.753 163.128Z" fill="white"/>
<path d="M920.567 197.8C917.668 196.273 915.259 193.957 913.618 191.12C911.925 188.142 911.079 184.757 911.171 181.333C911.1 177.949 911.946 174.61 913.618 171.668C915.268 168.851 917.676 166.553 920.567 165.037C923.642 163.389 927.086 162.547 930.575 162.59C934.088 162.541 937.556 163.383 940.656 165.037C943.547 166.553 945.955 168.851 947.605 171.668C949.277 174.61 950.123 177.949 950.052 181.333C950.144 184.757 949.297 188.142 947.605 191.12C945.964 193.957 943.555 196.273 940.656 197.8C937.556 199.454 934.088 200.296 930.575 200.247C927.086 200.29 923.642 199.448 920.567 197.8ZM938.38 189.726C939.423 188.62 940.234 187.316 940.763 185.891C941.293 184.466 941.531 182.949 941.463 181.431C941.531 179.912 941.293 178.395 940.763 176.97C940.234 175.546 939.423 174.242 938.38 173.136C937.369 172.097 936.153 171.28 934.809 170.736C933.466 170.193 932.023 169.935 930.575 169.979C929.129 169.933 927.69 170.189 926.35 170.733C925.009 171.277 923.798 172.095 922.794 173.136C921.763 174.248 920.964 175.554 920.443 176.978C919.922 178.402 919.689 179.916 919.759 181.431C919.689 182.945 919.922 184.459 920.443 185.883C920.964 187.307 921.763 188.614 922.794 189.726C923.798 190.766 925.009 191.585 926.35 192.128C927.69 192.672 929.129 192.929 930.575 192.882C932.036 192.937 933.492 192.684 934.849 192.14C936.206 191.596 937.434 190.774 938.454 189.726H938.38Z" fill="white"/>
<path d="M1025.39 196.675C1021.71 198.982 1017.5 200.289 1013.16 200.468C1011.39 200.53 1009.64 200.18 1008.03 199.445C1006.43 198.71 1005.01 197.611 1003.91 196.234C1002.49 194.437 1001.59 192.289 1001.29 190.019L993.753 199.954H986.413V172.035C985.091 172.989 983.525 174.139 981.886 175.411C982.369 176.803 982.721 178.237 982.938 179.693C983.526 183.396 983.232 187.185 982.082 190.753C980.972 194.348 978.494 197.362 975.182 199.146C973.663 199.91 971.988 200.312 970.288 200.321C967.807 200.326 965.415 199.4 963.583 197.727C962.045 196.293 960.976 194.427 960.518 192.375C960.059 190.322 960.232 188.179 961.014 186.227C961.627 184.648 962.513 183.191 963.632 181.92C966.422 178.84 969.458 175.992 972.71 173.405C972.239 172.601 971.607 171.904 970.853 171.356C970.099 170.809 969.24 170.423 968.33 170.224C965.02 169.956 961.716 170.819 958.959 172.671L955.386 166.333C959.591 163.693 964.573 162.57 969.505 163.152C971.301 163.493 973.012 164.186 974.541 165.189C976.069 166.193 977.384 167.488 978.411 169.001C982.693 165.771 986.144 163.397 986.437 163.201H993.656V187.964L1007.65 169.514C1009.32 167.145 1011.16 164.903 1013.16 162.81L1018.44 167.704C1016.87 169.37 1015.41 171.135 1014.06 172.989L1013.7 173.478C1011.51 176.434 1009.86 179.745 1008.8 183.266C1008.26 184.631 1008.03 186.1 1008.13 187.566C1008.23 189.032 1008.66 190.455 1009.39 191.732C1011.37 194.179 1016 193.714 1021.45 190.46L1025.39 196.675ZM975.328 188.404C976.106 185.946 976.29 183.338 975.867 180.795V180.403C973.542 182.332 971.359 184.426 969.333 186.667C968.774 187.296 968.327 188.016 968.012 188.796C967.75 189.385 967.673 190.039 967.791 190.673C967.909 191.306 968.216 191.889 968.673 192.344C969.148 192.751 969.739 192.998 970.363 193.051C970.986 193.103 971.61 192.959 972.147 192.638C973.716 191.674 974.874 190.167 975.402 188.404H975.328Z" fill="white"/>
<path d="M1068.14 184.122H1039.44C1039.86 186.693 1041.27 188.995 1043.38 190.533C1045.67 192.191 1048.45 193.051 1051.28 192.98C1053.12 193.041 1054.95 192.72 1056.66 192.038C1058.37 191.355 1059.92 190.327 1061.21 189.016L1065.81 194.301C1064.14 196.287 1062 197.818 1059.57 198.755C1056.87 199.789 1053.98 200.296 1051.08 200.247C1047.4 200.32 1043.75 199.479 1040.46 197.8C1037.5 196.308 1035.04 193.987 1033.37 191.12C1031.68 188.142 1030.83 184.757 1030.92 181.333C1030.88 177.968 1031.72 174.651 1033.37 171.717C1034.94 168.898 1037.29 166.582 1040.12 165.037C1043.11 163.38 1046.49 162.536 1049.91 162.59C1053.25 162.565 1056.54 163.408 1059.45 165.037C1062.24 166.583 1064.52 168.892 1066.03 171.692C1067.67 174.695 1068.51 178.063 1068.48 181.48C1068.14 182.238 1068.14 183.07 1068.14 184.122ZM1042.81 171.888C1040.9 173.549 1039.67 175.859 1039.36 178.372H1060.11C1059.84 175.877 1058.64 173.575 1056.76 171.912C1054.82 170.254 1052.34 169.381 1049.79 169.465C1047.19 169.399 1044.66 170.306 1042.69 172.01L1042.81 171.888Z" fill="white"/>
<path d="M1077.53 163.128H1086.1V178.005H1104.52V163.128H1113.09V199.831H1104.52V185.37H1086.1V199.831H1077.53V163.128Z" fill="white"/>
<path d="M1124.61 163.128H1133.18V187.254L1153.39 163.128H1161.12V199.831H1152.56V175.705L1132.42 199.831H1124.54L1124.61 163.128Z" fill="white"/>
<path d="M1206.83 184.122H1178.25C1178.67 186.693 1180.09 188.995 1182.19 190.533C1184.48 192.195 1187.26 193.055 1190.09 192.98C1191.93 193.041 1193.76 192.72 1195.47 192.038C1197.18 191.355 1198.73 190.327 1200.03 189.016L1204.63 194.301C1202.94 196.276 1200.8 197.806 1198.39 198.755C1195.68 199.787 1192.8 200.293 1189.9 200.247C1186.21 200.32 1182.56 199.479 1179.28 197.8C1176.31 196.308 1173.85 193.987 1172.18 191.12C1170.49 188.142 1169.64 184.757 1169.73 181.333C1169.69 177.968 1170.53 174.651 1172.18 171.717C1173.76 168.898 1176.1 166.582 1178.93 165.037C1181.93 163.38 1185.3 162.536 1188.72 162.59C1192.07 162.562 1195.37 163.405 1198.29 165.037C1201.07 166.59 1203.35 168.898 1204.87 171.692C1206.5 174.695 1207.34 178.063 1207.32 181.48C1206.95 182.238 1206.9 183.07 1206.83 184.122ZM1181.5 171.888C1179.59 173.549 1178.36 175.859 1178.05 178.372H1198.8C1198.52 175.88 1197.32 173.58 1195.45 171.912C1193.5 170.252 1191.01 169.38 1188.45 169.465C1185.9 169.431 1183.43 170.336 1181.5 172.01V171.888Z" fill="white"/>
</g>
<defs>
<clipPath id="clip0_143_1273">
<rect width="1459.52" height="397.081" fill="white" transform="translate(-9.52002 0.409912)"/>
</clipPath>
</defs>
</svg>
