<svg width="19" height="19" viewBox="0 0 19 19" fill="none" xmlns="http://www.w3.org/2000/svg">
<rect x="1" y="3.83337" width="17" height="14.1667" rx="2" stroke="#171717" stroke-width="2"/>
<path d="M1 7.61115C1 5.94067 1 5.10543 1.46791 4.5478C1.54275 4.45861 1.62523 4.37612 1.71442 4.30129C2.27206 3.83337 3.1073 3.83337 4.77778 3.83337H14.2222C15.8927 3.83337 16.7279 3.83337 17.2856 4.30129C17.3748 4.37612 17.4572 4.45861 17.5321 4.5478C18 5.10543 18 5.94067 18 7.61115H1Z" fill="#171717"/>
<path d="M4.77783 1L4.77783 3.83333" stroke="#171717" stroke-width="2" stroke-linecap="round"/>
<path d="M14.2222 1L14.2222 3.83333" stroke="#171717" stroke-width="2" stroke-linecap="round"/>
<rect x="4.77783" y="9.5" width="3.77778" height="1.88889" rx="0.5" fill="#171717"/>
<rect x="4.77783" y="13.2778" width="3.77778" height="1.88889" rx="0.5" fill="#171717"/>
<rect x="10.4446" y="9.5" width="3.77778" height="1.88889" rx="0.5" fill="#171717"/>
<rect x="10.4446" y="13.2778" width="3.77778" height="1.88889" rx="0.5" fill="#171717"/>
</svg>
