<svg width="19" height="19" viewBox="0 0 19 19" fill="none" xmlns="http://www.w3.org/2000/svg">
<rect x="10.4443" y="12.3334" width="1.88889" height="1.88889" rx="0.944444" fill="#171717"/>
<rect x="4.77783" y="9.5" width="1.88889" height="5.66667" rx="0.944444" fill="#171717"/>
<rect x="8.55566" y="11.3889" width="1.88889" height="5.66667" rx="0.944445" transform="rotate(90 8.55566 11.3889)" fill="#171717"/>
<rect x="13.2778" y="10.4445" width="1.88889" height="1.88889" rx="0.944444" fill="#171717"/>
<path d="M11.3889 6.66667V6.66667C11.3889 6.35565 11.3889 6.20015 11.3696 6.0623C11.2705 5.35416 10.801 4.75277 10.138 4.48494C10.009 4.4328 9.8581 4.39509 9.55637 4.31965L9.49997 4.30556C9.14459 4.21671 8.9669 4.17229 8.8164 4.10712C8.1925 3.83698 7.74856 3.26839 7.6378 2.5976C7.61108 2.43579 7.61108 2.25263 7.61108 1.88631V1" stroke="#171717" stroke-width="2" stroke-linecap="round"/>
<path d="M1 12.3333C1 9.91664 1 8.70831 1.5855 7.87591C1.73623 7.66161 1.91207 7.46979 2.10851 7.30535C2.87155 6.66663 3.97918 6.66663 6.19444 6.66663H12.8056C15.0208 6.66663 16.1285 6.66663 16.8915 7.30535C17.0879 7.46979 17.2638 7.66161 17.4145 7.87591C18 8.70831 18 9.91664 18 12.3333C18 14.7499 18 15.9583 17.4145 16.7907C17.2638 17.005 17.0879 17.1968 16.8915 17.3612C16.1285 18 15.0208 18 12.8056 18H6.19444C3.97918 18 2.87155 18 2.10851 17.3612C1.91207 17.1968 1.73623 17.005 1.5855 16.7907C1 15.9583 1 14.7499 1 12.3333Z" stroke="#171717" stroke-width="2"/>
</svg>
