<svg width="21" height="21" viewBox="0 0 21 21" fill="none" xmlns="http://www.w3.org/2000/svg">
<circle cx="10.5" cy="10.5" r="9.5" stroke="#171717" stroke-width="2" stroke-linecap="round"/>
<path d="M14.2777 6.72217L6.72217 9.5555" stroke="#171717" stroke-width="2" stroke-linecap="round"/>
<path d="M6.72228 6.72217L14.2778 9.5555" stroke="#171717" stroke-width="2" stroke-linecap="round"/>
<path d="M6.72217 12.9136C6.72217 12.8907 6.72217 12.8792 6.72254 12.8695C6.73267 12.6086 6.94186 12.3994 7.20278 12.3893C7.21247 12.3889 7.22393 12.3889 7.24686 12.3889H13.753C13.776 12.3889 13.7874 12.3889 13.7971 12.3893C14.058 12.3994 14.2672 12.6086 14.2773 12.8695C14.2777 12.8792 14.2777 12.8907 14.2777 12.9136V13.3334C14.2777 15.4198 12.5864 17.1111 10.4999 17.1111C8.41354 17.1111 6.72217 15.4198 6.72217 13.3334V12.9136Z" fill="#171717"/>
</svg>
