<svg width="17" height="18" viewBox="0 0 17 18" fill="none" xmlns="http://www.w3.org/2000/svg">
<path fill-rule="evenodd" clip-rule="evenodd" d="M9.80019 0.284092C9.23208 0.0994438 8.62692 0 8.00061 0C5.0346 0 2.5429 2.23018 2.21536 5.17804L1.99806 7.13373C1.90247 7.99406 1.62244 8.82366 1.17708 9.56592L0.678251 10.3973L0.662609 10.4234L0.662586 10.4234C0.5051 10.6859 0.362203 10.924 0.2589 11.1254C0.155092 11.3279 0.0334911 11.5989 0.00702766 11.9145C-0.0617503 12.7349 0.379125 13.5135 1.11793 13.8766C1.40219 14.0163 1.69717 14.0515 1.92416 14.0666C2.15006 14.0817 2.4278 14.0817 2.73389 14.0816L2.76428 14.0816H13.2369L13.2673 14.0816C13.5734 14.0817 13.8512 14.0817 14.0771 14.0666C14.304 14.0515 14.599 14.0163 14.8833 13.8766C15.6221 13.5135 16.063 12.7349 15.9942 11.9145C15.9677 11.5989 15.8461 11.3279 15.7423 11.1254C15.639 10.924 15.4961 10.6858 15.3386 10.4234L15.323 10.3973L14.8241 9.56592C14.5662 9.13611 14.3638 8.67702 14.2205 8.19963C13.8852 8.27508 13.5365 8.3149 13.1784 8.3149C12.8275 8.3149 12.4854 8.27664 12.1563 8.20407C12.3427 9.04529 12.6639 9.85285 13.1091 10.5949L13.608 11.4263C13.7862 11.7233 13.8936 11.9034 13.9627 12.0381C13.9684 12.0491 13.9734 12.0593 13.9779 12.0685C13.9716 12.069 13.9649 12.0695 13.9578 12.0701C13.9534 12.0704 13.9488 12.0707 13.944 12.071C13.793 12.0811 13.5833 12.0816 13.2369 12.0816H2.76428C2.41792 12.0816 2.20824 12.0811 2.05722 12.071C2.04479 12.0702 2.0335 12.0693 2.02328 12.0685C2.02779 12.0593 2.03286 12.0491 2.03854 12.0381C2.10761 11.9034 2.21504 11.7233 2.39324 11.4263L2.89207 10.5949C3.4854 9.60602 3.85847 8.50078 3.98583 7.35459L4.20313 5.39891C4.41813 3.4639 6.0537 2 8.00061 2C8.24037 2 8.47541 2.0222 8.70366 2.06475C8.9336 1.38949 9.31209 0.782956 9.80019 0.284092ZM12.4236 2.03639C11.8487 2.31643 11.4525 2.90643 11.4525 3.58895C11.4525 4.54216 12.2252 5.3149 13.1784 5.3149C13.3933 5.3149 13.599 5.27563 13.7887 5.20389L13.7859 5.17805C13.6525 3.97783 13.1604 2.89658 12.4236 2.03639Z" fill="#171717"/>
<path d="M5.49997 13.6553C5.64748 14.481 5.9725 15.2107 6.42464 15.7311C6.87678 16.2515 7.43077 16.5336 8.00068 16.5336C8.57059 16.5336 9.12457 16.2515 9.57671 15.7311C10.0289 15.2107 10.3539 14.481 10.5014 13.6553" stroke="#171717" stroke-width="2" stroke-linecap="round"/>
<path d="M13.1783 5.81493C14.4077 5.81493 15.4043 4.81834 15.4043 3.58898C15.4043 2.35963 14.4077 1.36304 13.1783 1.36304C11.949 1.36304 10.9524 2.35963 10.9524 3.58898C10.9524 4.81834 11.949 5.81493 13.1783 5.81493Z" fill="#171717" stroke="#171717"/>
</svg>
