<svg width="19" height="20" viewBox="0 0 19 20" fill="none" xmlns="http://www.w3.org/2000/svg">
<path d="M1 1H2.72723C3.37805 1 3.70346 1 3.95216 1.16185C4.00024 1.19314 4.04554 1.22851 4.08756 1.26757C4.3049 1.46959 4.38382 1.78528 4.54167 2.41667L4.73461 3.18845C4.86458 3.70831 4.92956 3.96824 5.04143 4.18095C5.30841 4.68859 5.78048 5.05717 6.33771 5.19306C6.57121 5.25 6.83914 5.25 7.375 5.25V5.25" stroke="#171717" stroke-width="2" stroke-linecap="round"/>
<path d="M15.875 14.8125H4.77284C4.53987 14.8125 4.42339 14.8125 4.33575 14.7968C3.80497 14.7015 3.44534 14.2025 3.5228 13.6689C3.53559 13.5807 3.57242 13.4702 3.64609 13.2492V13.2492C3.72787 13.0039 3.76876 12.8812 3.81864 12.775C4.11244 12.1492 4.70857 11.7196 5.39512 11.6387C5.51167 11.625 5.64097 11.625 5.89958 11.625H11.625" stroke="#171717" stroke-width="2" stroke-linecap="round" stroke-linejoin="round"/>
<path d="M12.3404 11.625H8.41018C7.01452 11.625 6.31669 11.625 5.80162 11.2665C5.6979 11.1943 5.60125 11.1124 5.51297 11.0219C5.07464 10.5728 4.95991 9.88449 4.73047 8.50782C4.49775 7.1115 4.38139 6.41334 4.70833 5.92064C4.77308 5.82306 4.84903 5.7334 4.93464 5.65349C5.36688 5.25 6.07467 5.25 7.49025 5.25H14.7639C16.2143 5.25 16.9395 5.25 17.2326 5.72427C17.5257 6.19854 17.2014 6.84717 16.5528 8.14443L15.9181 9.41386C15.3802 10.4897 15.1112 11.0276 14.6279 11.3263C14.1446 11.625 13.5432 11.625 12.3404 11.625Z" stroke="#171717" stroke-width="2" stroke-linecap="round"/>
<circle cx="14.8125" cy="18" r="1.0625" fill="#171717"/>
<circle cx="6.3125" cy="18" r="1.0625" fill="#171717"/>
</svg>
