<!-- icon666.com - MILLIONS vector ICONS FREE --><svg version="1.1" id="Layer_1" xmlns="http://www.w3.org/2000/svg" xmlns:xlink="http://www.w3.org/1999/xlink" x="0px" y="0px" viewBox="0 0 512.014 512.014" style="enable-background:new 0 0 512.014 512.014;" xml:space="preserve"><g><g><path d="M500.232,70.528l-64.147,64.148h-59.962V74.714l64.147-64.147C395.081-9.793,341.619-0.126,306.435,35.06 c-16.32,16.319-27.51,36.824-32.358,59.296c-4.035,18.703-3.549,37.999,1.362,56.354L94.785,331.362 c-1.656-0.09-3.317-0.147-4.988-0.147c-23.983,0-46.531,9.339-63.49,26.298c-16.958,16.959-26.298,39.506-26.298,63.49 c0,23.983,9.34,46.532,26.298,63.49c16.959,16.959,39.506,26.298,63.49,26.298c23.983,0,46.531-9.339,63.49-26.298 c16.958-16.958,26.298-39.506,26.298-63.49c0-1.671-0.056-3.333-0.147-4.989L360.091,235.36 c18.354,4.91,37.651,5.397,56.353,1.362c22.471-4.849,42.975-16.038,59.296-32.359 C510.925,169.178,520.593,115.716,500.232,70.528z M132.123,463.329c-11.306,11.305-26.338,17.531-42.327,17.531 s-31.021-6.226-42.327-17.531c-11.305-11.306-17.531-26.338-17.531-42.327s6.226-31.021,17.531-42.327 c11.306-11.305,26.338-17.531,42.327-17.531s31.021,6.226,42.327,17.531c11.305,11.306,17.531,26.339,17.531,42.327 C149.655,436.991,143.428,452.023,132.123,463.329z"></path></g></g><g><g><path d="M127.739,21.915C113.607,7.784,94.817,0,74.832,0S36.057,7.784,21.924,21.915C7.792,36.048,0.009,54.837,0.009,74.823 s7.783,38.775,21.915,52.908l10.582,10.582L138.321,32.497L127.739,21.915z"></path></g></g><g><g><rect x="74.427" y="88.898" transform="matrix(0.7071 -0.7071 0.7071 0.7071 -61.8145 149.2463)" width="149.644" height="120.683"></rect></g></g><g><g><rect x="434.46" y="426.987" transform="matrix(0.7071 -0.7071 0.7071 0.7071 -192.3626 464.3915)" width="59.858" height="74.822"></rect></g></g><g><g><rect x="337.905" y="298.61" transform="matrix(0.7071 -0.7071 0.7071 0.7071 -152.3523 367.8305)" width="59.858" height="138.421"></rect></g></g></svg>