<svg width="18" height="17" viewBox="0 0 18 17" fill="none" xmlns="http://www.w3.org/2000/svg">
<path d="M16 7V4.2C16 3.0799 16 2.51984 15.782 2.09202C15.5903 1.71569 15.2843 1.40973 14.908 1.21799C14.4802 1 13.9201 1 12.8 1H4.2C3.0799 1 2.51984 1 2.09202 1.21799C1.71569 1.40973 1.40973 1.71569 1.21799 2.09202C1 2.51984 1 3.07989 1 4.2V9.8C1 10.9201 1 11.4802 1.21799 11.908C1.40973 12.2843 1.71569 12.5903 2.09202 12.782C2.51984 13 3.07989 13 4.2 13H11" stroke="#171717" stroke-width="2" stroke-linecap="round"/>
<path d="M5 9H9" stroke="#171717" stroke-width="2" stroke-linecap="round"/>
<path d="M5 5H12" stroke="#171717" stroke-width="2" stroke-linecap="round"/>
<circle cx="15" cy="11" r="1" stroke="#171717" stroke-width="2"/>
<path d="M17 16C17 16 16.5 15 15 15C13.5 15 13 16 13 16" stroke="#171717" stroke-width="2" stroke-linecap="round"/>
</svg>
